<svg xmlns="http://www.w3.org/2000/svg" version="1.1" xmlns:xlink="http://www.w3.org/1999/xlink" xmlns:svgjs="http://svgjs.com/svgjs" width="1440" height="700" preserveAspectRatio="none" viewBox="0 0 1440 700"><g mask="url(&quot;#SvgjsMask1218&quot;)" fill="none"><rect width="1440" height="700" x="0" y="0" fill="#0e2a47"></rect><path d="M1051.82 88.19L1082.58 88.19L1082.58 118.95L1051.82 118.95z" stroke="rgba(167, 73, 0, 1)"></path><path d="M406.05 109.45L442.56 109.45L442.56 165.29L406.05 165.29z" fill="rgba(167, 73, 0, 1)"></path><path d="M520.86 494.39a2.11 2.11 0 1 0 1.53-3.93z" stroke="rgba(49, 60, 172, 1)"></path><path d="M357.26 74.6 a17.15 17.15 0 1 0 34.3 0 a17.15 17.15 0 1 0 -34.3 0z" stroke="rgba(167, 73, 0, 1)"></path><path d="M1211.37 34.89L1239.48 34.89L1239.48 63L1211.37 63z" stroke="rgba(66, 68, 90, 1)"></path><path d="M828.53 133.27 a22.29 22.29 0 1 0 44.58 0 a22.29 22.29 0 1 0 -44.58 0z" stroke="rgba(167, 73, 0, 1)"></path><path d="M123.2 533.97 a27.38 27.38 0 1 0 54.76 0 a27.38 27.38 0 1 0 -54.76 0z" fill="rgba(49, 60, 172, 1)"></path><path d="M524.55 412.16a34.15 34.15 0 1 0 44.19 52.08z" fill="rgba(167, 73, 0, 1)"></path><path d="M298.52 248.5a28.02 28.02 0 1 0-41.01-38.19z" fill="rgba(66, 68, 90, 1)"></path><path d="M472.64 195.86 a48.67 48.67 0 1 0 97.34 0 a48.67 48.67 0 1 0 -97.34 0z" stroke="rgba(167, 73, 0, 1)"></path><path d="M297.2 365.09 a19.75 19.75 0 1 0 39.5 0 a19.75 19.75 0 1 0 -39.5 0z" stroke="rgba(49, 60, 172, 1)"></path><path d="M81 381.47L86.25 381.47L86.25 415.89L81 415.89z" stroke="rgba(66, 68, 90, 1)"></path><path d="M1128.07 303.37L1143.99 303.37L1143.99 319.29L1128.07 319.29z" stroke="rgba(167, 73, 0, 1)"></path><path d="M946.6 28.47 a62.36 62.36 0 1 0 124.72 0 a62.36 62.36 0 1 0 -124.72 0z" fill="rgba(49, 60, 172, 1)"></path><path d="M1352.04 92.84L1381.26 92.84L1381.26 122.06L1352.04 122.06z" stroke="rgba(49, 60, 172, 1)"></path><path d="M402.84 201.96L416.29 201.96L416.29 215.41L402.84 215.41z" fill="rgba(66, 68, 90, 1)"></path><path d="M473.56 36.12a16.41 16.41 0 1 0 3.01 32.69z" stroke="rgba(167, 73, 0, 1)"></path><path d="M1305.54 463.29 a67.38 67.38 0 1 0 134.76 0 a67.38 67.38 0 1 0 -134.76 0z" stroke="rgba(49, 60, 172, 1)"></path><path d="M717 40.25a13.4 13.4 0 1 0-23.45-12.98z" fill="rgba(167, 73, 0, 1)"></path><path d="M1212.54 351.61L1254.07 351.61L1254.07 393.14L1212.54 393.14z" stroke="rgba(167, 73, 0, 1)"></path><path d="M1327.29 502.31L1374.73 502.31L1374.73 556.37L1327.29 556.37z" stroke="rgba(167, 73, 0, 1)"></path><path d="M22.28 429.8L28.13 429.8L28.13 440.43L22.28 440.43z" fill="rgba(167, 73, 0, 1)"></path><path d="M136.33 145.33L194.69 145.33L194.69 179.84L136.33 179.84z" stroke="rgba(167, 73, 0, 1)"></path><path d="M510.65 486.41a61.83 61.83 0 1 0 58.28 109.06z" stroke="rgba(167, 73, 0, 1)"></path><path d="M535.3 61.78L543.88 61.78L543.88 87.3L535.3 87.3z" stroke="rgba(167, 73, 0, 1)"></path><path d="M1151.92 486.47L1178.29 486.47L1178.29 512.84L1151.92 512.84z" fill="rgba(66, 68, 90, 1)"></path></g><defs><mask id="SvgjsMask1218"><rect width="1440" height="700" fill="#ffffff"></rect></mask></defs></svg>